<svg xmlns="http://www.w3.org/2000/svg" viewBox="0 0 111.2 117.77" width="111.2" height="117.77">
  <defs>
    <style>
      .a {
        fill: #f5b100;
      }
    </style>
  </defs>
  <title>adv_gold</title>
  <path class="a" d="M55.6,0,0,23.24,7.81,90.29,55.6,117.77l47.79-27.48,7.81-67.05ZM52.14,15.86H90.65L91,30.41l-2.47,2.74L82.33,40,69,54.8l-.11-31.63L54.53,68.29l-1.25-.81-18-11.64ZM44.32,95.22H18.69L30.53,67.13l9,11.4,4.59,5.81L47,87.91Zm24.64,0L69,84l3.46-5.58L89.05,51.82l.9-1.45,1.44-2.32,1.1,47.17ZM88.84,44.35l-2.39,3.84L69,76.29l-2.4,3.86-9,14.51L47.38,81.78l-5.33-6.73L31.15,61.27,29,58.51,26,54.7l4,2.59L32.51,59,51,71l2.19,1.41,3.51,2.29,3.14-3.5,7.39-8.21.19,0v-.24h0l.16-.18L85.39,42.79l3.3-3.66,11-12.21Z"/>
</svg>
