<?xml version="1.0" encoding="utf-8"?>
<svg version="1.1" xmlns:xlink="http://www.w3.org/1999/xlink" width="24px" height="24px" viewBox="78 1036  24 24" xmlns="http://www.w3.org/2000/svg">
  <path d="M 78.5 1040  A 3.5 3.5 0 0 1 82 1036.5 L 98 1036.5  A 3.5 3.5 0 0 1 101.5 1040 L 101.5 1056  A 3.5 3.5 0 0 1 98 1059.5 L 82 1059.5  A 3.5 3.5 0 0 1 78.5 1056 L 78.5 1040  Z " fill-rule="nonzero" fill="#ffffff" stroke="none" />
  <path d="M 78.5 1040  A 3.5 3.5 0 0 1 82 1036.5 L 98 1036.5  A 3.5 3.5 0 0 1 101.5 1040 L 101.5 1056  A 3.5 3.5 0 0 1 98 1059.5 L 82 1059.5  A 3.5 3.5 0 0 1 78.5 1056 L 78.5 1040  Z " stroke-width="1" stroke="#008500" fill="none" />
  <path d="M 83.1428571428571 1048  L 88.2857142857143 1053.14285714286  " stroke-width="5.14285714285714" stroke="#008500" fill="none" />
  <path d="M 88.2857142857143 1053.14285714286  L 96.8571428571429 1041.14285714286  " stroke-width="5.14285714285714" stroke="#008500" fill="none" />
</svg>