<?xml version="1.0" encoding="utf-8"?>
<!-- Generator: Adobe Illustrator 24.1.2, SVG Export Plug-In . SVG Version: 6.00 Build 0)  -->
<svg version="1.1" xmlns="http://www.w3.org/2000/svg" xmlns:xlink="http://www.w3.org/1999/xlink" x="0px" y="0px"
	 viewBox="0 0 864 180" style="enable-background:new 0 0 864 180;" xml:space="preserve">
<style type="text/css">
	.st0{display:none;}
	.st1{display:inline;}
	.st2{fill:none;stroke:#FFFFFF;}
	.st3{fill:#FFFFFF;}
	.st4{clip-path:url(#SVGID_2_);fill:#FFFFFF;}
	.st5{fill:none;}
	.st6{display:inline;fill:none;}
</style>
<g id="white" class="st0">
	<g class="st1">
		<path class="st2" d="M858.78,45.56c0,4.31-3.49,7.8-7.8,7.8c-4.31,0-7.81-3.49-7.81-7.8c0-4.31,3.49-7.8,7.81-7.8
			C855.29,37.75,858.78,41.25,858.78,45.56z"/>
		<g>
			<path class="st3" d="M855.22,50.27h-2.29l-0.12-0.74c-0.04-0.19-0.11-0.8-0.21-1.85c-0.05-0.46-0.18-0.81-0.41-1.06
				c-0.14-0.16-0.6-0.25-1.37-0.25c-0.15,0-0.27,0-0.35,0h-0.86v3.89h-2.1v-9.65h3.84c1.12,0,1.98,0.21,2.61,0.64
				c0.62,0.43,0.93,1.06,0.93,1.89c0,0.61-0.15,1.1-0.44,1.46c-0.29,0.36-0.72,0.63-1.27,0.79l-0.26,0.09l0.26,0.07
				c0.26,0.05,0.47,0.11,0.63,0.2c0.16,0.09,0.28,0.2,0.38,0.34c0.2,0.3,0.34,0.77,0.42,1.39c0.13,0.95,0.21,1.52,0.26,1.72
				c0.04,0.19,0.08,0.35,0.11,0.48c0.04,0.12,0.08,0.25,0.14,0.38L855.22,50.27z M852.65,43.42c0-0.78-0.58-1.16-1.73-1.16h-1.36
				v2.55H851c0.56,0,0.98-0.12,1.25-0.36C852.52,44.21,852.65,43.87,852.65,43.42z"/>
		</g>
		<g>
			<path class="st3" d="M100.2,171.88c-52.78,0-95.72-38.13-95.72-85.01C4.48,40,47.42,1.86,100.2,1.86S195.92,40,195.92,86.87
				C195.92,133.74,152.98,171.88,100.2,171.88z"/>
			<path class="st3" d="M100.2,2.86c52.31,0,94.72,37.61,94.72,84.01c0,46.4-42.41,84.01-94.72,84.01
				c-52.31,0-94.72-37.61-94.72-84.01C5.48,40.48,47.88,2.86,100.2,2.86 M100.2,0.86c-53.33,0-96.72,38.58-96.72,86.01
				c0,47.42,43.39,86.01,96.72,86.01s96.72-38.58,96.72-86.01C196.92,39.45,153.53,0.86,100.2,0.86L100.2,0.86z"/>
		</g>
		<g>
			<path class="st3" d="M277.18,146.25h-16l-1.86-7.47c-4.27,6.57-11.46,9.71-18.53,9.71c-16.79,0-22-15.24-22-31.08V70.35
				c0-16.88,4.53-33.02,29.2-33.02c20.79,0,28.39,8.82,28.39,30.63v10.91h-24.53V62.43c0-4.18-0.53-7.17-3.86-7.17
				c-4.13,0-4.67,4.19-4.67,7.92v58.57c0,4.63,1.07,8.37,4.67,8.37c4.4,0,4.66-4.03,4.66-8.22v-17.93h-5.07V88.73h29.59V146.25z"/>
			<path class="st3" d="M283.05,39.57h27.06c15.73,0,27.86,1.05,27.86,21.66v9.56c0,11.65-4,18.08-14.4,18.83v0.3
				c10.93,0.75,15.33,7.02,15.33,18.97v37.35h-22.93v-40.49c0-5.08-1.33-9.26-6.4-9.26c-1.2,0-1.87,0.15-2.8,0.45v49.31h-23.73
				V39.57z M306.78,80.36h1.87c3.33,0,7.33-1.34,7.33-7.47v-8.81c0-6.13-4-7.47-7.33-7.47h-1.87V80.36z"/>
			<path class="st3" d="M344.77,39.57h41.46v21.51H369.3v19.57h15.86v20.62H369.3v23.46h18.26v21.52h-42.79V39.57z"/>
			<path class="st3" d="M401.43,39.57h35.32l13.07,106.68h-24.53l-1.2-18.83h-8.93l-1.2,18.83h-24.53L401.43,39.57z M423.69,108.6
				l-4.26-50.2h-0.27l-4,50.2H423.69z"/>
			<path class="st3" d="M457.95,61.09h-14.53V39.57h53.59v21.51h-14.53v85.16h-24.53V61.09z"/>
			<path class="st3" d="M532.21,39.57h32.13c14.13,0,22.53,7.77,22.53,24.35v13.15c0,15.39-5.07,25.7-20.26,25.7h-10.66v43.48
				h-23.73V39.57z M555.93,84.84h4.26c4.27,0,5.87-2.24,5.87-6.42V63.93c0-4.18-1.6-6.43-5.87-6.43h-4.26V84.84z"/>
			<path class="st3" d="M591.39,39.57h24.53v86.06h16.26v20.62h-40.79V39.57z"/>
			<path class="st3" d="M645.52,39.57h35.32l13.07,106.68h-24.53l-1.2-18.83h-8.93l-1.2,18.83h-24.53L645.52,39.57z M667.78,108.6
				l-4.27-50.2h-0.27l-4,50.2H667.78z"/>
			<path class="st3" d="M697.1,39.57h24.53v106.68H697.1V39.57z"/>
			<path class="st3" d="M727.1,39.57h20.79l14,53.04h0.27V39.57h20.8v106.68h-20.8l-13.86-59.61h-0.4v59.61H727.1V39.57z"/>
			<path class="st3" d="M787.88,107.4h22.93v17.18c0,3.44,0.67,6.87,4.13,6.87c4.4,0,4.53-5.53,4.53-9.71v-4.48
				c0-19.57-31.73-17.03-31.73-47.51v-5.98c0-19.42,10.53-26.45,26.8-26.45c22.93,0,27.06,11.95,27.06,23.46V70.8h-22v-8.81
				c0-6.73-2.67-7.62-4.8-7.62c-2.4,0-4.13,1.64-4.13,7.02v4.63c0,15.54,32.53,15.39,32.53,46.76v8.37
				c0,21.66-11.59,27.34-28.66,27.34c-23.33,0-26.66-12.55-26.66-27.79V107.4z"/>
		</g>
		<g>
			<defs>
				<path id="SVGID_1_" d="M195.18,86.87c0,46.53-42.53,84.24-94.98,84.24c-52.46,0-94.98-37.71-94.98-84.24
					c0-46.52,42.52-84.24,94.98-84.24C152.65,2.63,195.18,40.35,195.18,86.87z"/>
			</defs>
			<clipPath id="SVGID_2_">
				<use xlink:href="#SVGID_1_"  style="overflow:visible;"/>
			</clipPath>
			<path class="st4" d="M122.43,168.99c-8.03,1.79-17.4,2.2-17.4,2.2l0.22-109.33h38.03c34.76,0,49.69,10.77,49.69,28.91
				c0,19.39-19.83,28.91-50.91,28.91h-4.91l0.13,44.92C137.28,164.59,131.98,166.86,122.43,168.99z M137.15,104.02h3.47
				c12.47,0,19.63-4.76,19.63-13.26c0-8.5-7.16-13.27-19.63-13.27h-3.47V104.02z"/>
			<path class="st4" d="M98.25,61.88l0.08,80.69c-9.33,0.36-12.4-0.1-23.56-0.1c-40.51,0-61.19-22.81-61.19-56.87
				c0-34.07,24.23-59.1,57.09-59.96c9.94-0.26,86.69,0,94.82,0.04c0,0,7.12,5.66,13.51,14.01c4.52,5.91,7.2,11.15,7.2,11.15
				c-45.18,0-103.79,0.13-107.51,0.13c-20.67,0-31.19,8.65-31.19,38.06c0,19.2,6.72,30.87,22.63,30.87l-0.04-33.54l-8.29,0
				l0.12-24.47L98.25,61.88z"/>
		</g>
	</g>
</g>
<g id="black">
	<g>
		<path d="M140.62,104.03h-3.47V77.5h3.47c12.48,0,19.63,4.76,19.63,13.26C160.25,99.26,153.1,104.03,140.62,104.03z"/>
	</g>
	<g>
		<path d="M194.92,86.87c0,34.72-23.76,64.52-57.64,77.32l-0.13-44.53h4.91c31.08,0,50.91-9.52,50.91-28.91
			c0-18.13-14.93-28.9-49.69-28.9h-38.03l-0.22,108.91c-1.6,0.07-3.21,0.11-4.83,0.11c-52.32,0-94.72-37.61-94.72-84
			c0-46.4,42.4-84.01,94.72-84.01c25.11,0,47.94,8.66,64.89,22.82c-9.92-0.05-84.62-0.3-94.42-0.04
			C37.81,26.5,13.58,51.53,13.58,85.6c0,34.06,20.68,56.87,61.19,56.87c11.16,0,14.23,0.46,23.56,0.11l-0.08-80.7l-36.34,0.03
			l-0.12,24.47h8.29l0.04,33.54c-15.91,0-22.63-11.67-22.63-30.87c0-29.41,10.52-38.06,31.19-38.06c3.71,0,61.98-0.13,107.11-0.13
			C191.65,61.77,194.92,73.99,194.92,86.87z"/>
	</g>
	<g>
		<path d="M277.18,146.25h-16l-1.86-7.47c-4.27,6.57-11.46,9.71-18.53,9.71c-16.79,0-22-15.24-22-31.08V70.35
			c0-16.88,4.53-33.02,29.2-33.02c20.79,0,28.39,8.82,28.39,30.63v10.91h-24.53V62.43c0-4.18-0.53-7.17-3.86-7.17
			c-4.13,0-4.67,4.19-4.67,7.92v58.57c0,4.63,1.07,8.37,4.67,8.37c4.4,0,4.66-4.03,4.66-8.22v-17.93h-5.07V88.73h29.59V146.25z"/>
		<path d="M283.05,39.57h27.06c15.73,0,27.86,1.05,27.86,21.66v9.56c0,11.65-4,18.08-14.4,18.83v0.3
			c10.93,0.75,15.33,7.02,15.33,18.97v37.35h-22.93v-40.49c0-5.08-1.33-9.26-6.4-9.26c-1.2,0-1.87,0.15-2.8,0.45v49.31h-23.73V39.57
			z M306.78,80.36h1.87c3.33,0,7.33-1.34,7.33-7.47v-8.81c0-6.13-4-7.47-7.33-7.47h-1.87V80.36z"/>
		<path d="M344.77,39.57h41.46v21.51H369.3v19.57h15.86v20.62H369.3v23.46h18.26v21.52h-42.79V39.57z"/>
		<path d="M401.43,39.57h35.32l13.07,106.68h-24.53l-1.2-18.83h-8.93l-1.2,18.83h-24.53L401.43,39.57z M423.69,108.6l-4.26-50.2
			h-0.27l-4,50.2H423.69z"/>
		<path d="M457.95,61.09h-14.53V39.57h53.59v21.51h-14.53v85.16h-24.53V61.09z"/>
		<path d="M532.21,39.57h32.13c14.13,0,22.53,7.77,22.53,24.35v13.15c0,15.39-5.07,25.7-20.26,25.7h-10.66v43.48h-23.73V39.57z
			 M555.93,84.84h4.26c4.27,0,5.87-2.24,5.87-6.42V63.93c0-4.18-1.6-6.43-5.87-6.43h-4.26V84.84z"/>
		<path d="M591.39,39.57h24.53v86.06h16.26v20.62h-40.79V39.57z"/>
		<path d="M645.52,39.57h35.32l13.07,106.68h-24.53l-1.2-18.83h-8.93l-1.2,18.83h-24.53L645.52,39.57z M667.78,108.6l-4.27-50.2
			h-0.27l-4,50.2H667.78z"/>
		<path d="M697.1,39.57h24.53v106.68H697.1V39.57z"/>
		<path d="M727.1,39.57h20.79l14,53.04h0.27V39.57h20.8v106.68h-20.8l-13.86-59.61h-0.4v59.61H727.1V39.57z"/>
		<path d="M787.88,107.4h22.93v17.18c0,3.44,0.67,6.87,4.13,6.87c4.4,0,4.53-5.53,4.53-9.71v-4.48c0-19.57-31.73-17.03-31.73-47.51
			v-5.98c0-19.42,10.53-26.45,26.8-26.45c22.93,0,27.06,11.95,27.06,23.46V70.8h-22v-8.81c0-6.73-2.67-7.62-4.8-7.62
			c-2.4,0-4.13,1.64-4.13,7.02v4.63c0,15.54,32.53,15.39,32.53,46.76v8.37c0,21.66-11.59,27.34-28.66,27.34
			c-23.33,0-26.66-12.55-26.66-27.79V107.4z"/>
	</g>
	<path class="st5" d="M195.18,86.87c0,46.53-42.53,84.24-94.98,84.24c-52.46,0-94.98-37.71-94.98-84.24
		c0-46.52,42.52-84.24,94.98-84.24C152.65,2.63,195.18,40.35,195.18,86.87z"/>
</g>
<g id="wht_k_x2F_o" class="st0">
	<g class="st1">
		<path class="st3" d="M140.62,104.03h-3.47V77.5h3.47c12.48,0,19.63,4.76,19.63,13.26C160.25,99.26,153.1,104.03,140.62,104.03z"/>
	</g>
	<g class="st1">
		<path class="st3" d="M194.92,86.87c0,34.72-23.76,64.52-57.64,77.32l-0.13-44.53h4.91c31.08,0,50.91-9.52,50.91-28.91
			c0-18.13-14.93-28.9-49.69-28.9h-38.03l-0.22,108.91c-1.6,0.07-3.21,0.11-4.83,0.11c-52.32,0-94.72-37.61-94.72-84
			c0-46.4,42.4-84.01,94.72-84.01c25.11,0,47.94,8.66,64.89,22.82c-9.92-0.05-84.62-0.3-94.42-0.04
			C37.81,26.5,13.58,51.53,13.58,85.6c0,34.06,20.68,56.87,61.19,56.87c11.16,0,14.23,0.46,23.56,0.11l-0.08-80.7l-36.34,0.03
			l-0.12,24.47h8.29l0.04,33.54c-15.91,0-22.63-11.67-22.63-30.87c0-29.41,10.52-38.06,31.19-38.06c3.71,0,61.98-0.13,107.11-0.13
			C191.65,61.77,194.92,73.99,194.92,86.87z"/>
	</g>
	<g class="st1">
		<path class="st3" d="M277.18,146.25h-16l-1.86-7.47c-4.27,6.57-11.46,9.71-18.53,9.71c-16.79,0-22-15.24-22-31.08V70.35
			c0-16.88,4.53-33.02,29.2-33.02c20.79,0,28.39,8.82,28.39,30.63v10.91h-24.53V62.43c0-4.18-0.53-7.17-3.86-7.17
			c-4.13,0-4.67,4.19-4.67,7.92v58.57c0,4.63,1.07,8.37,4.67,8.37c4.4,0,4.66-4.03,4.66-8.22v-17.93h-5.07V88.73h29.59V146.25z"/>
		<path class="st3" d="M283.05,39.57h27.06c15.73,0,27.86,1.05,27.86,21.66v9.56c0,11.65-4,18.08-14.4,18.83v0.3
			c10.93,0.75,15.33,7.02,15.33,18.97v37.35h-22.93v-40.49c0-5.08-1.33-9.26-6.4-9.26c-1.2,0-1.87,0.15-2.8,0.45v49.31h-23.73V39.57
			z M306.78,80.36h1.87c3.33,0,7.33-1.34,7.33-7.47v-8.81c0-6.13-4-7.47-7.33-7.47h-1.87V80.36z"/>
		<path class="st3" d="M344.77,39.57h41.46v21.51H369.3v19.57h15.86v20.62H369.3v23.46h18.26v21.52h-42.79V39.57z"/>
		<path class="st3" d="M401.43,39.57h35.32l13.07,106.68h-24.53l-1.2-18.83h-8.93l-1.2,18.83h-24.53L401.43,39.57z M423.69,108.6
			l-4.26-50.2h-0.27l-4,50.2H423.69z"/>
		<path class="st3" d="M457.95,61.09h-14.53V39.57h53.59v21.51h-14.53v85.16h-24.53V61.09z"/>
		<path class="st3" d="M532.21,39.57h32.13c14.13,0,22.53,7.77,22.53,24.35v13.15c0,15.39-5.07,25.7-20.26,25.7h-10.66v43.48h-23.73
			V39.57z M555.93,84.84h4.26c4.27,0,5.87-2.24,5.87-6.42V63.93c0-4.18-1.6-6.43-5.87-6.43h-4.26V84.84z"/>
		<path class="st3" d="M591.39,39.57h24.53v86.06h16.26v20.62h-40.79V39.57z"/>
		<path class="st3" d="M645.52,39.57h35.32l13.07,106.68h-24.53l-1.2-18.83h-8.93l-1.2,18.83h-24.53L645.52,39.57z M667.78,108.6
			l-4.27-50.2h-0.27l-4,50.2H667.78z"/>
		<path class="st3" d="M697.1,39.57h24.53v106.68H697.1V39.57z"/>
		<path class="st3" d="M727.1,39.57h20.79l14,53.04h0.27V39.57h20.8v106.68h-20.8l-13.86-59.61h-0.4v59.61H727.1V39.57z"/>
		<path class="st3" d="M787.88,107.4h22.93v17.18c0,3.44,0.67,6.87,4.13,6.87c4.4,0,4.53-5.53,4.53-9.71v-4.48
			c0-19.57-31.73-17.03-31.73-47.51v-5.98c0-19.42,10.53-26.45,26.8-26.45c22.93,0,27.06,11.95,27.06,23.46V70.8h-22v-8.81
			c0-6.73-2.67-7.62-4.8-7.62c-2.4,0-4.13,1.64-4.13,7.02v4.63c0,15.54,32.53,15.39,32.53,46.76v8.37
			c0,21.66-11.59,27.34-28.66,27.34c-23.33,0-26.66-12.55-26.66-27.79V107.4z"/>
	</g>
	<path class="st6" d="M195.18,86.87c0,46.53-42.53,84.24-94.98,84.24c-52.46,0-94.98-37.71-94.98-84.24
		c0-46.52,42.52-84.24,94.98-84.24C152.65,2.63,195.18,40.35,195.18,86.87z"/>
</g>
</svg>
