<svg xmlns="http://www.w3.org/2000/svg" viewBox="0 0 454.77 122.2" width="454.77" height="122.2">
  <defs>
    <style>
      .a {
        fill: #f5b100;
      }
    </style>
  </defs>
  <title>logo_blk-gold</title>
  <g>
    <path d="M143.23,30.41h12.15l8.15,13.7c2,3.74,2.57,4.82,4.42,8.87-.31-3.54-.36-4.31-.47-8.36V30.41h10.73V66.62H165.89l-7.33-12.51a100.56,100.56,0,0,1-5-9.54c.26,3.28.31,4.1.36,7.38V66.62H143.23Z"/>
    <path d="M193.33,48.51c0,6.32,2.57,10.11,8,10.11,4.61,0,7.85-3.64,7.85-10.46a14.23,14.23,0,0,0-.67-4.77,7.32,7.32,0,0,0-7.18-5.18C197.23,38.21,193.33,41,193.33,48.51Zm27.38-.35c0,9.17-5.39,19.64-19.59,19.64-14.82,0-19.28-11-19.28-19.23,0-10.36,6.41-19.49,19.49-19.49C215.64,29.08,220.71,39.54,220.71,48.16Z"/>
    <path d="M235.89,38v8.47h4.77c1.9,0,5.54-.11,5.54-4.21S242.6,38,240.61,38Zm-11.48-7.59h18.05c3.43,0,6.71.21,8.92,1.13,4.82,2.05,6.25,7,6.25,10.46a10.17,10.17,0,0,1-2.76,7.29A11.32,11.32,0,0,1,250.19,52L259,66.62H246.3l-7-12.77h-3.39V66.62H224.41Z"/>
    <polygon points="258.95 30.36 288.75 30.36 288.75 39.34 279.57 39.34 279.57 66.62 268.14 66.62 268.14 39.34 258.95 39.34 258.95 30.36"/>
    <polygon points="291.61 30.41 303.04 30.41 303.04 43.59 313.97 43.59 313.97 30.41 325.5 30.41 325.5 66.62 313.97 66.62 313.97 52.67 303.04 52.67 303.04 66.62 291.61 66.62 291.61 30.41"/>
    <polygon points="333.25 30.41 361.92 30.41 361.92 38.36 344.74 38.36 344.74 43.75 360.78 43.75 360.78 51.59 344.74 51.59 344.74 58.77 363.45 58.77 363.45 66.62 333.25 66.62 333.25 30.41"/>
    <path d="M377.91,38v8.47h4.77c1.9,0,5.54-.11,5.54-4.21S384.63,38,382.63,38Zm-11.49-7.59h18.06c3.44,0,6.72.21,8.92,1.13,4.82,2.05,6.26,7,6.26,10.46a10.19,10.19,0,0,1-2.77,7.29A11.29,11.29,0,0,1,392.22,52L401,66.62H388.32l-7-12.77h-3.38V66.62H366.42Z"/>
    <path d="M406,30.41h12.15l8.16,13.7c2,3.74,2.57,4.82,4.41,8.87-.3-3.54-.37-4.31-.46-8.36V30.41h10.71V66.62H428.62l-7.33-12.51a100.73,100.73,0,0,1-5-9.54c.26,3.28.3,4.1.36,7.38V66.62H406Z"/>
    <polygon points="160.02 78.94 160.02 82.65 154.19 82.65 154.19 95.43 148.24 95.43 148.24 82.65 142.38 82.65 142.38 78.94 160.02 78.94"/>
    <path d="M166,87.17c0,2.54,1.38,5.18,4.94,5.18a5.12,5.12,0,0,0,2.39-.47c1.81-.91,2.44-3,2.44-4.71S175,82.06,170.93,82C167.22,82,166,84.91,166,87.17Zm10.72-7.86a8.19,8.19,0,0,1,5.12,7.81,8.67,8.67,0,0,1-1.19,4.48,7.84,7.84,0,0,1-2,2.21c-2.24,1.78-4.91,2.2-7.89,2.2-5.73,0-8.09-2-9.3-3.69a7.83,7.83,0,0,1-1.56-5,8.91,8.91,0,0,1,1.51-5.15c2.31-3.26,6.23-3.8,9.14-3.84A15.83,15.83,0,0,1,176.71,79.31Z"/>
    <path d="M189.8,87.17c0,2.54,1.38,5.18,4.95,5.18a5,5,0,0,0,2.37-.47c1.82-.91,2.45-3,2.45-4.71s-.79-5.11-4.82-5.16C191,82,189.8,84.91,189.8,87.17Zm10.73-7.86a8.2,8.2,0,0,1,5.11,7.81,8.67,8.67,0,0,1-1.19,4.48,7.72,7.72,0,0,1-2,2.21c-2.23,1.78-4.89,2.2-7.87,2.2-5.74,0-8.09-2-9.31-3.69a7.84,7.84,0,0,1-1.57-5,8.93,8.93,0,0,1,1.53-5.15c2.3-3.26,6.22-3.8,9.14-3.84A15.89,15.89,0,0,1,200.53,79.31Z"/>
    <polygon points="214.17 78.96 214.17 91.41 222.57 91.41 222.57 95.43 208.25 95.43 208.25 78.96 214.17 78.96"/>
    <polygon points="276.63 78.96 276.63 82.67 265.18 82.67 265.18 85.35 275.77 85.35 275.77 89.08 265.15 89.08 265.15 91.69 276.86 91.69 276.86 95.43 259.27 95.43 259.27 78.96 276.63 78.96"/>
    <path d="M284.63,87.38a4.57,4.57,0,0,0,4.87,5c3.24,0,4.86-2.22,4.86-5,0-3.19-1.87-5.36-4.88-5.31C286.24,82.06,284.63,84.72,284.63,87.38Zm9.24,8.07a15.23,15.23,0,0,1-4.42.53,13,13,0,0,1-7.2-1.67,8,8,0,0,1-3.76-7,8.74,8.74,0,0,1,2.06-5.76c2.49-2.87,6.44-3.14,9-3.14,1.86,0,6.83,0,9.45,3.88a8.44,8.44,0,0,1,1.39,5.05,8,8,0,0,1-2,5.45l2.85,1.35-2.1,4.07Z"/>
    <path d="M303,79h5.88v9.35a4.48,4.48,0,0,0,.47,2.4,3.77,3.77,0,0,0,3.42,1.64,4,4,0,0,0,2.82-.92,4.29,4.29,0,0,0,1-3.21V79h5.87v8.63c0,1.94,0,4-.95,5.36-1.8,2.8-6.13,3.06-8.75,3.06-3.66,0-5.73-.51-7-1.26a5.44,5.44,0,0,1-2.82-5.2Z"/>
    <rect x="326.35" y="78.96" width="5.9" height="16.46"/>
    <path d="M341.69,85.91h3.82c1,0,2.5,0,2.5-1.61A1.65,1.65,0,0,0,347.4,83a2.37,2.37,0,0,0-1.42-.32h-4.29Zm-5.88-7h11.27c2.1,0,4,.09,5.32,1.25a5.25,5.25,0,0,1,1.51,4,5.33,5.33,0,0,1-1.09,3.41c-1.52,1.87-4,2-6.68,2h-4.45v5.81h-5.88Z"/>
    <polygon points="355.7 78.96 363.52 78.96 367.67 89.71 371.82 78.96 379.61 78.96 379.61 95.43 373.78 95.43 373.78 84.89 369.89 95.43 365.34 95.43 361.49 84.93 361.49 95.43 355.7 95.43 355.7 78.96"/>
    <polygon points="400.76 78.96 400.76 82.67 389.31 82.67 389.31 85.35 399.9 85.35 399.9 89.08 389.29 89.08 389.29 91.69 400.99 91.69 400.99 95.43 383.41 95.43 383.41 78.96 400.76 78.96"/>
    <path d="M403.87,79h4.87l5.06,5.55A37.77,37.77,0,0,1,416.72,88c-.1-2.26-.11-3-.11-5.27V79h5.8V95.43h-4.9l-6-6.82c-.84-1-1.12-1.32-1.86-2.26.06,2.85.06,3.48.08,5.57v3.51h-5.82Z"/>
    <polygon points="441.62 78.94 441.62 82.65 435.79 82.65 435.79 95.43 429.85 95.43 429.85 82.65 423.99 82.65 423.99 78.94 441.62 78.94"/>
    <polygon points="242.95 95.32 239.31 95.32 239.31 88.79 232.75 88.79 232.75 85.15 239.31 85.15 239.31 78.62 242.95 78.62 242.95 85.15 249.45 85.15 249.45 88.79 242.95 88.79 242.95 95.32"/>
    <g>
      <path class="a" d="M118.18,61.1A57.09,57.09,0,1,1,61.1,4,57.08,57.08,0,0,1,118.18,61.1Z"/>
      <path d="M61.1,122.2a61.1,61.1,0,1,1,61.1-61.1A61.17,61.17,0,0,1,61.1,122.2ZM61.1,8A53.08,53.08,0,1,0,114.17,61.1,53.13,53.13,0,0,0,61.1,8Z"/>
    </g>
    <polygon points="50.83 39.81 68.77 51.68 68.77 40.02 85.99 40.01 85.99 28.17 36.17 28.17 36.17 39.84 50.83 39.81"/>
    <path d="M49.37,43.26l-25.54.05V87.05L49.47,87s0-11.82,0-16.35l24.7,16.41h24.2l0-43.57-26.12,0V58.19L49.93,43.26Z"/>
    <polygon points="52.92 96.45 69.13 96.53 69.13 88 52.95 77.14 52.92 96.45"/>
    <path d="M443.38,35.9a5.7,5.7,0,1,1,5.69,5.49A5.43,5.43,0,0,1,443.38,35.9Zm9.55,0a3.86,3.86,0,1,0-7.7,0,3.86,3.86,0,1,0,7.7,0Zm-4.65,3h-1.45V32.92h2.23c1.57,0,2.53.4,2.53,1.82,0,1.1-.67,1.51-1.7,1.56l1.52,2.57H450l-1.36-2.48h-.37Zm1.05-3.53c.52,0,.8-.13.8-.75S449.48,34,449,34h-.75v1.37Z"/>
  </g>
</svg>
