<svg xmlns="http://www.w3.org/2000/svg" viewBox="0 0 528.54 63.76"><defs><style>.a{fill:#fff;}.b{fill:#f3b01c;}</style></defs><title>nte-tagline-horizontal</title><rect class="a" x="84.32" y="0.11" width="1" height="63.65"/><path class="b" d="M67.24,71.14A31.51,31.51,0,1,1,98.75,39.63,31.55,31.55,0,0,1,67.24,71.14Zm0-58.88A27.37,27.37,0,1,0,94.61,39.63,27.4,27.4,0,0,0,67.24,12.26ZM62,28.65l9.25,6.12v-6h8.89v-6.1H54.38v6Zm-.76,1.78L48,30.45V53l13.22,0s0-6.1,0-8.43L74,53H86.44l0-22.46H73v7.57l-11.51-7.7ZM63,57.86l8.36,0V53.5L63,47.9Z" transform="translate(-35.73 -8.12)"/><path class="a" d="M158.17,48.41a5.62,5.62,0,0,1-3.67-2,8.84,8.84,0,0,1-3.78.74c-5.69,0-7.81-4.07-7.81-7.92a8,8,0,0,1,2.26-5.85,7.76,7.76,0,0,1,5.8-2.1,7.46,7.46,0,0,1,5.54,2,8.1,8.1,0,0,1,2.29,5.76,10.21,10.21,0,0,1-.25,2.18,7.71,7.71,0,0,1-1.3,2.88,4.51,4.51,0,0,0,2.35,1Zm-9.45-12.47a5,5,0,0,0-1.07,3.38c0,2.52,1,4.07,3.15,4.07,1.78,0,3.23-1.3,3.23-4.3S152.4,35,150.84,35A2.74,2.74,0,0,0,148.72,35.94Z" transform="translate(-35.73 -8.12)"/><path class="a" d="M160.82,31.84h4.7V41.1a2.26,2.26,0,0,0,.55,1.79,2,2,0,0,0,1.49.54,2.16,2.16,0,0,0,1.49-.52,2.3,2.3,0,0,0,.57-1.81V31.84h4.72v7.9c0,1.7,0,3.9-1.74,5.56a7.3,7.3,0,0,1-5.08,1.76,7.56,7.56,0,0,1-5.17-1.76c-1.47-1.43-1.49-3.08-1.53-4.64Z" transform="translate(-35.73 -8.12)"/><path class="a" d="M180.71,31.84H186l5.54,14.83h-5l-.66-2.06h-5.16l-.65,2.06h-5Zm2.64,4.22-1.61,5.23h3.19Z" transform="translate(-35.73 -8.12)"/><path class="a" d="M193,31.82h4.68V42.93h5.73v3.74H193Z" transform="translate(-35.73 -8.12)"/><path class="a" d="M204.85,31.84h4.7V46.67h-4.7Z" transform="translate(-35.73 -8.12)"/><path class="a" d="M210.92,31.82h12.2V35.5h-3.76V46.67h-4.68V35.5h-3.76Z" transform="translate(-35.73 -8.12)"/><path class="a" d="M229.47,31.84l2.9,4.94,2.85-4.94h5.44l-6,8.59v6.24H230V40.43l-5.95-8.59Z" transform="translate(-35.73 -8.12)"/><path class="a" d="M248.16,31.82h12.2V35.5H256.6V46.67h-4.68V35.5h-3.76Z" transform="translate(-35.73 -8.12)"/><path class="a" d="M277.17,39.11c0,3.76-2.2,8-8,8-6.07,0-7.89-4.49-7.89-7.87,0-4.25,2.62-8,8-8C275.09,31.3,277.17,35.58,277.17,39.11ZM266,39.25c0,2.59,1.05,4.14,3.28,4.14,1.89,0,3.21-1.49,3.21-4.28a5.81,5.81,0,0,0-.27-2A3,3,0,0,0,269.24,35C267.56,35,266,36.19,266,39.25Z" transform="translate(-35.73 -8.12)"/><path class="a" d="M294.59,39.11c0,3.76-2.2,8-8,8-6.06,0-7.89-4.49-7.89-7.87,0-4.25,2.62-8,8-8C292.52,31.3,294.59,35.58,294.59,39.11Zm-11.21.14c0,2.59,1.05,4.14,3.28,4.14,1.89,0,3.21-1.49,3.21-4.28a5.81,5.81,0,0,0-.27-2A3,3,0,0,0,286.66,35C285,35,283.38,36.19,283.38,39.25Z" transform="translate(-35.73 -8.12)"/><path class="a" d="M296.68,31.82h4.68V42.93h5.73v3.74H296.68Z" transform="translate(-35.73 -8.12)"/><path class="a" d="M311.7,41.54a3.28,3.28,0,0,0,2.06,1.62,6.62,6.62,0,0,0,2.08.34c.38,0,2.22,0,2.22-1.12,0-.1,0-.65-.81-.92-.53-.19-3.26-.67-3.87-.82-1.36-.36-4-1.2-4-4.32a4.67,4.67,0,0,1,.42-1.92c1-2.18,3.47-3,6.13-3a10.2,10.2,0,0,1,4.47.94A7.18,7.18,0,0,1,322.56,34l-2.94,2.46a3,3,0,0,0-1.14-1,6.74,6.74,0,0,0-2.75-.55c-.79,0-1.68.21-1.68,1s.76.9,2,1.13c3.3.57,6.57,1.15,6.57,4.83a4.72,4.72,0,0,1-1.32,3.34c-1.87,1.91-4.85,1.91-5.67,1.91a12.5,12.5,0,0,1-3.44-.44,7.72,7.72,0,0,1-4.12-2.82Z" transform="translate(-35.73 -8.12)"/><path class="a" d="M343.35,31.84v3.28h-7.06v2.66h6.6V41h-6.6v5.69h-4.68V31.84Z" transform="translate(-35.73 -8.12)"/><path class="a" d="M360.46,39.11c0,3.76-2.21,8-8,8-6.07,0-7.9-4.49-7.9-7.87,0-4.25,2.63-8,8-8C358.38,31.3,360.46,35.58,360.46,39.11Zm-11.21.14c0,2.59,1.05,4.14,3.27,4.14,1.89,0,3.22-1.49,3.22-4.28a5.81,5.81,0,0,0-.28-2A3,3,0,0,0,352.52,35C350.84,35,349.25,36.19,349.25,39.25Z" transform="translate(-35.73 -8.12)"/><path class="a" d="M362.55,31.82h7.39a10.49,10.49,0,0,1,3.65.46,4.53,4.53,0,0,1,2.56,4.29,4.16,4.16,0,0,1-1.13,3,4.61,4.61,0,0,1-1.91,1.13l3.61,6h-5.21l-2.88-5.23h-1.38v5.23h-4.7Zm4.7,3.11v3.46h1.95c.78,0,2.27,0,2.27-1.72s-1.47-1.74-2.29-1.74Z" transform="translate(-35.73 -8.12)"/><path class="a" d="M387.64,41.54a3.28,3.28,0,0,0,2.06,1.62,6.62,6.62,0,0,0,2.08.34c.37,0,2.22,0,2.22-1.12,0-.1,0-.65-.82-.92-.52-.19-3.25-.67-3.86-.82-1.37-.36-4-1.2-4-4.32a4.52,4.52,0,0,1,.42-1.92c1-2.18,3.46-3,6.13-3a10.24,10.24,0,0,1,4.47.94A7.31,7.31,0,0,1,398.5,34l-2.94,2.46a3.12,3.12,0,0,0-1.14-1,6.74,6.74,0,0,0-2.75-.55c-.8,0-1.68.21-1.68,1s.76.9,2,1.13c3.29.57,6.57,1.15,6.57,4.83a4.72,4.72,0,0,1-1.32,3.34c-1.87,1.91-4.85,1.91-5.67,1.91a12.5,12.5,0,0,1-3.44-.44,7.68,7.68,0,0,1-4.12-2.82Z" transform="translate(-35.73 -8.12)"/><path class="a" d="M400.67,31.84h11.74V35.1h-7v2.2H412v3.21h-6.57v2.94H413v3.22H400.67Z" transform="translate(-35.73 -8.12)"/><path class="a" d="M415.08,31.82h7.39a10.55,10.55,0,0,1,3.66.46,4.53,4.53,0,0,1,2.56,4.29,4.13,4.13,0,0,1-1.14,3,4.49,4.49,0,0,1-1.91,1.13l3.61,6h-5.2l-2.88-5.23h-1.38v5.23h-4.71Zm4.71,3.11v3.46h1.95c.78,0,2.27,0,2.27-1.72s-1.47-1.74-2.29-1.74Z" transform="translate(-35.73 -8.12)"/><path class="a" d="M430.7,31.84h4.7V46.67h-4.7Z" transform="translate(-35.73 -8.12)"/><path class="a" d="M453.37,39.11c0,3.76-2.2,8-8,8-6.06,0-7.89-4.49-7.89-7.87,0-4.25,2.62-8,8-8C451.3,31.3,453.37,35.58,453.37,39.11Zm-11.21.14c0,2.59,1,4.14,3.28,4.14,1.89,0,3.21-1.49,3.21-4.28a5.81,5.81,0,0,0-.27-2A3,3,0,0,0,445.44,35C443.76,35,442.16,36.19,442.16,39.25Z" transform="translate(-35.73 -8.12)"/><path class="a" d="M455.35,31.84h4.71V41.1a2.29,2.29,0,0,0,.54,1.79,2,2,0,0,0,1.49.54,2.14,2.14,0,0,0,1.49-.52,2.27,2.27,0,0,0,.57-1.81V31.84h4.72v7.9c0,1.7,0,3.9-1.74,5.56a7.28,7.28,0,0,1-5.08,1.76,7.55,7.55,0,0,1-5.16-1.76c-1.47-1.43-1.5-3.08-1.54-4.64Z" transform="translate(-35.73 -8.12)"/><path class="a" d="M473.74,41.54a3.25,3.25,0,0,0,2.05,1.62,6.67,6.67,0,0,0,2.08.34c.38,0,2.23,0,2.23-1.12,0-.1,0-.65-.82-.92-.53-.19-3.26-.67-3.86-.82-1.37-.36-4-1.2-4-4.32a4.67,4.67,0,0,1,.42-1.92c1-2.18,3.47-3,6.13-3a10.25,10.25,0,0,1,4.48.94A7.12,7.12,0,0,1,484.59,34l-2.94,2.46a3,3,0,0,0-1.13-1,6.77,6.77,0,0,0-2.75-.55c-.8,0-1.68.21-1.68,1s.75.9,2,1.13c3.3.57,6.58,1.15,6.58,4.83a4.72,4.72,0,0,1-1.33,3.34c-1.87,1.91-4.85,1.91-5.67,1.91a12.55,12.55,0,0,1-3.44-.44,7.68,7.68,0,0,1-4.11-2.82Z" transform="translate(-35.73 -8.12)"/><path class="a" d="M492.68,31.84h4.57l1.45,6.47a24.92,24.92,0,0,1,.65,3.88c.26-1.65.32-2.1.74-3.9l1.53-6.45h4l1.62,6.45a25.76,25.76,0,0,1,.69,3.88c.21-1.63.29-2.1.63-3.76L510,31.84h4.56l-3.7,14.83h-5l-1.34-5.38c-.48-2-.59-2.56-.92-4.6a34.29,34.29,0,0,1-.74,4.16l-1.43,5.82h-5Z" transform="translate(-35.73 -8.12)"/><path class="a" d="M531.13,39.11c0,3.76-2.21,8-8,8-6.06,0-7.89-4.49-7.89-7.87,0-4.25,2.62-8,8-8C529.05,31.3,531.13,35.58,531.13,39.11Zm-11.22.14c0,2.59,1.05,4.14,3.28,4.14,1.89,0,3.21-1.49,3.21-4.28a5.81,5.81,0,0,0-.27-2A3,3,0,0,0,523.19,35C521.51,35,519.91,36.19,519.91,39.25Z" transform="translate(-35.73 -8.12)"/><path class="a" d="M533.21,31.82h7.39a10.46,10.46,0,0,1,3.65.46,4.52,4.52,0,0,1,2.57,4.29,4.18,4.18,0,0,1-1.14,3,4.61,4.61,0,0,1-1.91,1.13l3.61,6h-5.2l-2.88-5.23h-1.39v5.23h-4.7Zm4.7,3.11v3.46h2c.77,0,2.26,0,2.26-1.72s-1.46-1.74-2.28-1.74Z" transform="translate(-35.73 -8.12)"/><path class="a" d="M548.84,31.84h4.68v5.61l4.66-5.61h5.73l-5.16,5.63,5.52,9.2H559l-3.28-5.92-2.18,2.41v3.51h-4.7Z" transform="translate(-35.73 -8.12)"/></svg>