<?xml version="1.0" encoding="utf-8"?>
<svg enable-background="new 0 0 612 792" height="48px" viewBox="0 0 143 48" width="143px" xmlns="http://www.w3.org/2000/svg">
  <g transform="translate(-234.729996 -369.649994)">
    <g>
      <path d="m238.54 410.74h4.35v.86h-3.38v1.89h3.31v.85h-3.31v2.88h-.97z"/>
      <path d="m248.4 415.88h-3.18l-.52 1.34h-1.07l2.58-6.48h1.21l2.57 6.48h-1.07zm-2.9-.86h2.61l-1.31-3.43z"/>
      <path d="m257.08 412.08-2.1 5.15h-.41l-2.1-5.15v5.15h-.97v-6.48h1.39l1.88 4.65 1.89-4.65h1.39v6.48h-.97z"/>
      <path d="m260.22 410.74h.97v6.48h-.97z"/>
      <path d="m263.37 410.74h.97v5.63h2.94v.86h-3.92v-6.49z"/>
      <path d="m269.75 414.51-2.54-3.77h1.12l1.9 2.9 1.88-2.9h1.13l-2.53 3.77v2.71h-.97v-2.71z"/>
      <path d="m280.99 410.64c1.93 0 3.26 1.43 3.26 3.35s-1.33 3.35-3.26 3.35-3.26-1.43-3.26-3.35c-.01-1.92 1.32-3.35 3.26-3.35zm0 .86c-1.39 0-2.26 1.06-2.26 2.49 0 1.42.87 2.49 2.26 2.49 1.37 0 2.26-1.07 2.26-2.49 0-1.43-.89-2.49-2.26-2.49z"/>
      <path d="m289.58 412.22-1.34 5h-1.04l-1.86-6.48h1.09l1.34 5.2 1.42-5.2h.79l1.41 5.2 1.34-5.2h1.09l-1.85 6.48h-1.04z"/>
      <path d="m296.35 412.25v4.97h-.97v-6.48h1l3.53 4.86v-4.86h.97v6.48h-.94z"/>
      <path d="m303.04 410.74h4.35v.86h-3.38v1.89h3.31v.85h-3.31v2.02h3.38v.86h-4.35z"/>
      <path d="m309.34 410.74h2.31c2.02 0 3.36 1.38 3.36 3.25s-1.34 3.24-3.36 3.24h-2.31zm2.32 5.63c1.5 0 2.36-1.07 2.36-2.38 0-1.33-.84-2.39-2.36-2.39h-1.34v4.77z"/>
      <path d="m320.32 415.56c.44.49 1.14.91 2.04.91 1.05 0 1.42-.53 1.42-1 0-.68-.74-.87-1.56-1.09-1.04-.27-2.24-.57-2.24-1.89 0-1.07.94-1.85 2.29-1.85 1 0 1.79.32 2.36.9l-.56.72c-.5-.52-1.18-.76-1.88-.76-.72 0-1.21.37-1.21.91 0 .58.7.77 1.51.97 1.06.28 2.29.61 2.29 1.99 0 1.01-.7 1.95-2.45 1.95-1.16 0-2-.42-2.56-1.03z"/>
      <path d="m326.63 410.74h.97v6.48h-.97z"/>
      <path d="m330.75 412.25v4.97h-.97v-6.48h1l3.53 4.86v-4.86h.97v6.48h-.94z"/>
      <path d="m337.18 413.99c0-1.99 1.48-3.35 3.32-3.35 1.27 0 2.07.61 2.58 1.37l-.83.44c-.34-.54-.98-.94-1.75-.94-1.31 0-2.32 1.03-2.32 2.49 0 1.45 1.01 2.49 2.32 2.49.77 0 1.41-.4 1.75-.94l.83.44c-.52.76-1.3 1.37-2.58 1.37-1.85-.02-3.32-1.38-3.32-3.37z"/>
      <path d="m344.78 410.74h4.35v.86h-3.38v1.89h3.31v.85h-3.31v2.02h3.38v.86h-4.35z"/>
      <path d="m355.39 412.02-1.05 1.1-.57-.59 1.74-1.78h.86v6.48h-.97v-5.21z"/>
      <path d="m359.05 415.85c.33.37.72.61 1.36.61 1.24 0 1.77-1.19 1.77-2.33v-.22c-.3.44-1 .96-1.79.96-1.17 0-2.16-.71-2.16-2.09 0-1.16.9-2.15 2.33-2.15 1.87 0 2.59 1.56 2.59 3.35 0 1.81-.9 3.34-2.75 3.34-.82 0-1.41-.3-1.83-.75zm1.56-4.35c-.92 0-1.39.68-1.39 1.25 0 .86.64 1.27 1.41 1.27.59 0 1.19-.34 1.51-.86-.05-.74-.47-1.66-1.53-1.66z"/>
      <path d="m366.29 413.88c-.74-.22-1.39-.71-1.39-1.55 0-1.18 1.18-1.69 2.3-1.69 1.1 0 2.29.52 2.29 1.69 0 .84-.66 1.32-1.4 1.55.8.25 1.5.84 1.5 1.69 0 1.13-1.1 1.77-2.39 1.77-1.31 0-2.41-.63-2.41-1.77 0-.84.7-1.43 1.5-1.69zm.91.44c-.41.05-1.43.38-1.43 1.14 0 .63.65 1.02 1.43 1.02.75 0 1.42-.39 1.42-1.02 0-.76-1.03-1.09-1.42-1.14zm0-2.81c-.76 0-1.32.36-1.32.97 0 .69.92.94 1.32 1.01.4-.07 1.31-.32 1.31-1.01 0-.61-.58-.97-1.31-.97z"/>
      <path d="m372.58 412.02-1.05 1.1-.57-.59 1.74-1.78h.86v6.48h-.97v-5.21z"/>
    </g>
    <g>
      <path d="m240.94 375.43c3.5 0 6.21 2.38 6.21 5.87s-2.7 5.87-6.21 5.87c-3.5 0-6.21-2.38-6.21-5.87s2.7-5.87 6.21-5.87zm0 3.03c-1.65 0-2.72 1.26-2.72 2.84s1.07 2.84 2.72 2.84 2.72-1.26 2.72-2.84-1.07-2.84-2.72-2.84z"/>
      <path d="m246.49 375.62h3.9l2.45 7.64 2.45-7.64h3.89l-4.18 11.34h-4.32z"/>
      <path d="m259.58 375.62h8.61v2.86h-5.17v1.33h5.05v2.86h-5.05v1.45h5.17v2.86h-8.61z"/>
      <path d="m274.37 383.32h-1.24v3.64h-3.44v-11.34h6.06c2.65 0 4.08 1.77 4.08 3.89 0 1.96-1.14 2.99-2.04 3.44l2.06 4.01h-3.91zm.85-4.84h-2.09v1.99h2.09c.58 0 1.12-.37 1.12-1 0-.62-.54-.99-1.12-.99z"/>
      <path d="m294.19 386.27h-9.36v-4.52l7.09-11.81h8.17v11.2h2.25v5.13h-2.25v3.12h-5.89v-3.12zm-3.68-5.13h3.67v-6.12z"/>
      <path d="m311.54 369.65c5.8 0 8.63 4.75 8.63 10.03s-2.83 10.06-8.63 10.06-8.63-4.78-8.63-10.06c0-5.27 2.83-10.03 8.63-10.03zm0 5.19c-1.87 0-2.71 1.55-2.71 4.84s.85 4.87 2.71 4.87c1.87 0 2.71-1.58 2.71-4.87.01-3.29-.84-4.84-2.71-4.84z"/>
      <path d="m326.82 382.46-4.25-6.84h3.86l2.11 3.83 2.07-3.83h3.86l-4.22 6.84v4.51h-3.44v-4.51z"/>
      <path d="m334.88 375.62h8.61v2.86h-5.17v1.33h5.05v2.86h-5.05v1.45h5.17v2.86h-8.61z"/>
      <path d="m352.25 385.5h-4.35l-.44 1.46h-3.72l4.18-11.34h4.32l4.18 11.34h-3.73zm-3.47-2.86h2.59l-1.29-4z"/>
      <path d="m361.51 383.32h-1.24v3.64h-3.44v-11.34h6.06c2.65 0 4.08 1.77 4.08 3.89 0 1.96-1.14 2.99-2.04 3.44l2.06 4.01h-3.91zm.85-4.84h-2.09v1.99h2.09c.58 0 1.12-.37 1.12-1 0-.62-.55-.99-1.12-.99z"/>
      <path d="m369.07 382.81c.85.82 2.13 1.46 3.66 1.46.65 0 1.26-.22 1.26-.66s-.48-.66-1.6-.87c-1.87-.34-4.73-.78-4.73-3.62 0-1.92 1.6-3.67 4.71-3.67 1.85 0 3.52.53 4.81 1.58l-1.84 2.43c-.99-.75-2.26-1.12-3.16-1.12-.85 0-1.04.31-1.04.59 0 .44.46.6 1.67.8 1.87.32 4.64.87 4.64 3.49 0 2.5-1.85 3.95-4.9 3.95-2.41 0-4.06-.71-5.27-1.8z"/>
      <path d="m254.61 392.63h3.44v11.34h-3.44z"/>
      <path d="m263.14 397.89v6.09h-3.44v-11.34h3.54l3.95 5.71v-5.71h3.44v11.34h-3.3z"/>
      <path d="m276.46 392.63h6.89c2.35 0 3.37 1.56 3.37 2.89 0 1.41-.83 2.36-1.94 2.6 1.22.19 2.16 1.31 2.16 2.77 0 1.58-1.07 3.08-3.35 3.08h-7.13zm6.09 4.22c.36 0 .68-.32.68-.73 0-.39-.32-.7-.68-.7h-2.65v1.43zm.1 4.34c.49 0 .8-.34.8-.77 0-.41-.31-.78-.8-.78h-2.76v1.55z"/>
      <path d="m288.04 392.63h3.49v6.57c0 1.09.56 1.96 1.97 1.96 1.39 0 1.96-.87 1.96-1.96v-6.57h3.49v6.67c0 2.82-1.62 4.88-5.44 4.88-3.83 0-5.46-2.06-5.46-4.86v-6.69z"/>
      <path d="m301.45 399.82c.85.82 2.13 1.46 3.66 1.46.65 0 1.26-.22 1.26-.66s-.48-.66-1.6-.87c-1.87-.34-4.73-.78-4.73-3.62 0-1.92 1.6-3.67 4.71-3.67 1.85 0 3.52.53 4.81 1.58l-1.84 2.43c-.99-.75-2.26-1.12-3.16-1.12-.85 0-1.04.31-1.04.59 0 .44.46.6 1.67.8 1.87.32 4.64.87 4.64 3.49 0 2.5-1.85 3.95-4.9 3.95-2.42 0-4.07-.71-5.27-1.8z"/>
      <path d="m310.84 392.63h3.44v11.34h-3.44z"/>
      <path d="m319.37 397.89v6.09h-3.44v-11.34h3.54l3.95 5.71v-5.71h3.44v11.34h-3.3z"/>
      <path d="m328.53 392.63h8.61v2.86h-5.17v1.33h5.05v2.86h-5.05v1.45h5.17v2.86h-8.61z"/>
      <path d="m339.56 399.82c.85.82 2.13 1.46 3.66 1.46.65 0 1.26-.22 1.26-.66s-.48-.66-1.6-.87c-1.87-.34-4.73-.78-4.73-3.62 0-1.92 1.6-3.67 4.71-3.67 1.85 0 3.52.53 4.81 1.58l-1.84 2.43c-.99-.75-2.26-1.12-3.16-1.12-.85 0-1.04.31-1.04.59 0 .44.46.6 1.67.8 1.87.32 4.64.87 4.64 3.49 0 2.5-1.85 3.95-4.9 3.95-2.41 0-4.06-.71-5.27-1.8z"/>
      <path d="m349.8 399.82c.85.82 2.13 1.46 3.66 1.46.65 0 1.26-.22 1.26-.66s-.48-.66-1.6-.87c-1.87-.34-4.73-.78-4.73-3.62 0-1.92 1.6-3.67 4.71-3.67 1.85 0 3.52.53 4.81 1.58l-1.84 2.43c-.99-.75-2.26-1.12-3.16-1.12-.85 0-1.04.31-1.04.59 0 .44.46.6 1.67.8 1.87.32 4.64.87 4.64 3.49 0 2.5-1.85 3.95-4.9 3.95-2.42 0-4.07-.71-5.27-1.8z"/>
    </g>
  </g>
</svg>