<svg xmlns="http://www.w3.org/2000/svg" viewBox="0 0 239.19 52.53" width="239.19" height="52.53">
  <defs>
    <style>
      .a {
        fill: #c7c8c9;
      }
    </style>
  </defs>
  <title>plat-logo</title>
  <g>
    <polygon class="a" points="232.07 52.52 7.12 52.52 0 0 239.19 0 232.07 52.52"/>
    <g>
      <path d="M24.78,44.54H16.39V7.21H31.84c7.26,0,7.26,5.23,7.26,8.69v4.75c0,6.07-.8,8.74-8.46,8.74H24.78Zm0-21.25h3.16c2.61,0,2.94-.31,2.94-2.8V16.78c0-2.51,0-3.27-2.88-3.27H24.78Z"/>
      <path d="M62.93,44.54H43.65V7.27h8.28V38.14h11Z"/>
      <path d="M90.47,44.54H82l-1-5.93H74.88l-1.09,5.93H65.43l8-37.27h9.25ZM76,32.11h4.12l-2-12.46Z"/>
      <path d="M104.4,44.54H96V13.41H88.56V7.27h23.29v6.14H104.4Z"/>
      <path d="M124,44.54h-8.28V7.27H124Z"/>
      <path d="M153.77,44.54H143.6l-.09-.33-6.25-23.62.6,24H130V7.27h10.34l6.39,23.45-.65-23.45h7.71Z"/>
      <path d="M171,45.31c-7.26,0-11.27-3.4-11.27-9.56V7.27h8.39v27.5c0,2,0,3.93,3.06,3.93s3-1.84,3-4V7.27h8.39V35.9C182.53,42.14,178.64,45.31,171,45.31Z"/>
      <path d="M222.8,44.54h-8.28l.59-27.16-5.62,27.16h-7.71L196,17.2l.49,27.34h-8.22V7.27h12.89l4.45,23.5L210,7.27H222.8Z"/>
    </g>
  </g>
</svg>
