<?xml version="1.0" encoding="utf-8"?>
<!-- Generator: Adobe Illustrator 25.2.3, SVG Export Plug-In . SVG Version: 6.00 Build 0)  -->
<svg version="1.1" id="Layer_1" xmlns="http://www.w3.org/2000/svg" xmlns:xlink="http://www.w3.org/1999/xlink" x="0px" y="0px"
	 viewBox="0 0 24 24" style="enable-background:new 0 0 24 24;" xml:space="preserve">
<style type="text/css">
	.st0{fill:none;}
	.st1{fill:#505050;}
</style>
<path class="st0" d="M0,0h24v24H0V0z"/>
<circle class="st1" cx="12" cy="12" r="3.2"/>
<path class="st1" d="M9,2L7.2,4H4C2.9,4,2,4.9,2,6v12c0,1.1,0.9,2,2,2h16c1.1,0,2-0.9,2-2V6c0-1.1-0.9-2-2-2h-3.2L15,2H9z M12,17
	c-2.8,0-5-2.2-5-5s2.2-5,5-5s5,2.2,5,5S14.8,17,12,17z"/>
</svg>
