<?xml version="1.0" encoding="utf-8"?>
<svg version="1.1" xmlns:xlink="http://www.w3.org/1999/xlink" width="17px" height="24px" xmlns="http://www.w3.org/2000/svg">
  <g transform="matrix(1 0 0 1 -1276 -579 )">
    <path d="M 16.7196180555556 9.50480769230769  C 16.9065393518519 9.6875  17 9.90384615384615  17 10.1538461538462  L 17 12  C 17 14.125  16.2744502314815 15.9735576923077  14.8233506944444 17.5456730769231  C 13.3722511574074 19.1177884615385  11.5792824074074 20.0192307692308  9.44444444444444 20.25  L 9.44444444444444 22.1538461538462  L 13.2222222222222 22.1538461538462  C 13.4780092592593 22.1538461538462  13.6993634259259 22.2451923076923  13.8862847222222 22.4278846153846  C 14.0732060185185 22.6105769230769  14.1666666666667 22.8269230769231  14.1666666666667 23.0769230769231  C 14.1666666666667 23.3269230769231  14.0732060185185 23.5432692307692  13.8862847222222 23.7259615384615  C 13.6993634259259 23.9086538461538  13.4780092592593 24  13.2222222222222 24  L 3.77777777777778 24  C 3.52199074074074 24  3.30063657407407 23.9086538461538  3.11371527777778 23.7259615384615  C 2.92679398148148 23.5432692307692  2.83333333333333 23.3269230769231  2.83333333333333 23.0769230769231  C 2.83333333333333 22.8269230769231  2.92679398148148 22.6105769230769  3.11371527777778 22.4278846153846  C 3.30063657407407 22.2451923076923  3.52199074074074 22.1538461538462  3.77777777777778 22.1538461538462  L 7.55555555555556 22.1538461538462  L 7.55555555555556 20.25  C 5.42071759259259 20.0192307692308  3.62774884259259 19.1177884615385  2.17664930555556 17.5456730769231  C 0.725549768518518 15.9735576923077  0 14.125  0 12  L 0 10.1538461538462  C 0 9.90384615384615  0.0934606481481482 9.6875  0.280381944444444 9.50480769230769  C 0.467303240740741 9.32211538461538  0.688657407407408 9.23076923076923  0.944444444444444 9.23076923076923  C 1.20023148148148 9.23076923076923  1.42158564814815 9.32211538461538  1.60850694444444 9.50480769230769  C 1.79542824074074 9.6875  1.88888888888889 9.90384615384615  1.88888888888889 10.1538461538462  L 1.88888888888889 12  C 1.88888888888889 13.7788461538462  2.5357349537037 15.3004807692308  3.82942708333333 16.5649038461538  C 5.12311921296296 17.8293269230769  6.67997685185185 18.4615384615385  8.5 18.4615384615385  C 10.3200231481481 18.4615384615385  11.876880787037 17.8293269230769  13.1705729166667 16.5649038461538  C 14.4642650462963 15.3004807692308  15.1111111111111 13.7788461538462  15.1111111111111 12  L 15.1111111111111 10.1538461538462  C 15.1111111111111 9.90384615384615  15.2045717592593 9.6875  15.3914930555556 9.50480769230769  C 15.5784143518519 9.32211538461538  15.7997685185185 9.23076923076923  16.0555555555556 9.23076923076923  C 16.3113425925926 9.23076923076923  16.5326967592593 9.32211538461538  16.7196180555556 9.50480769230769  Z M 11.8350694444444 1.35576923076923  C 12.759837962963 2.25961538461538  13.2222222222222 3.34615384615384  13.2222222222222 4.61538461538462  L 13.2222222222222 12  C 13.2222222222222 13.2692307692308  12.759837962963 14.3557692307692  11.8350694444444 15.2596153846154  C 10.9103009259259 16.1634615384615  9.79861111111111 16.6153846153846  8.5 16.6153846153846  C 7.20138888888889 16.6153846153846  6.08969907407408 16.1634615384615  5.16493055555556 15.2596153846154  C 4.24016203703704 14.3557692307692  3.77777777777778 13.2692307692308  3.77777777777778 12  L 3.77777777777778 4.61538461538462  C 3.77777777777778 3.34615384615384  4.24016203703704 2.25961538461538  5.16493055555556 1.35576923076923  C 6.08969907407408 0.451923076923079  7.20138888888889 0  8.5 0  C 9.79861111111111 0  10.9103009259259 0.451923076923079  11.8350694444444 1.35576923076923  Z " fill-rule="nonzero" fill="#505050" stroke="none" transform="matrix(1 0 0 1 1276 579 )" />
  </g>
</svg>