<?xml version="1.0" encoding="utf-8"?>
<!-- Generator: Adobe Illustrator 25.2.3, SVG Export Plug-In . SVG Version: 6.00 Build 0)  -->
<svg version="1.1" xmlns="http://www.w3.org/2000/svg" xmlns:xlink="http://www.w3.org/1999/xlink" x="0px" y="0px"
	 viewBox="0 0 48 48" style="enable-background:new 0 0 48 48;" xml:space="preserve">
<style type="text/css">
	.st0{display:none;}
	.st1{display:inline;}
	.st2{fill:#FFFFFF;}
	.st3{fill:#505050;}
</style>
<g id="Layer_3" class="st0">
</g>
<g id="Layer_1" class="st0">
	<g class="st1">
		<path class="st2" d="M25.9,16.9c0-1,0.7-1.2,1.1-1.2c0.5,0,2.8,0,2.8,0v-4.4h-3.9c-4.4,0-5.3,3.3-5.3,5.3v2.9h-2.5V24h2.5
			c0,5.8,0,12.7,0,12.7h5.3c0,0,0-7,0-12.7h3.6l0.4-4.5h-4V16.9z"/>
	</g>
</g>
<g id="Layer_2">
	<path class="st3" d="M24,0C10.7,0,0,10.7,0,24s10.7,24,24,24s24-10.7,24-24S37.3,0,24,0z M30.4,24.1h-4.6c0,7.8,0,17.3,0,17.3h-6.7
		c0,0,0-9.4,0-17.3h-3.2V18h3.2v-3.9c0-2.7,1.1-7.2,6.7-7.2h5v6c0,0-2.9,0-3.6,0c-0.5,0-1.4,0.3-1.4,1.6V18h5.1L30.4,24.1z"/>
</g>
</svg>
