<svg id="Layer_1" data-name="Layer 1" xmlns="http://www.w3.org/2000/svg" viewBox="0 0 189.44 168.01"><defs><style>.cls-1{fill:#f5b100;}</style></defs><g id="black"><path class="cls-1" d="M138.24,105.44h-3.47V78.91h3.47c12.48,0,19.63,4.76,19.63,13.26S150.72,105.44,138.24,105.44Z" transform="translate(-3.1 -4.28)"/><path class="cls-1" d="M192.54,88.29c0,34.72-23.76,64.52-57.64,77.32l-.13-44.53h4.91c31.08,0,50.91-9.52,50.91-28.91,0-18.13-14.93-28.9-49.69-28.9h-38l-.22,108.91c-1.6.07-3.21.11-4.83.11-52.32,0-94.72-37.61-94.72-84s42.4-84,94.72-84c25.11,0,47.94,8.66,64.89,22.82-9.92-.05-84.62-.3-94.42,0C35.43,27.91,11.2,52.94,11.2,87s20.68,56.87,61.19,56.87c11.16,0,14.23.46,23.56.11l-.08-80.7-36.34,0-.12,24.47H67.7l0,33.54c-15.91,0-22.63-11.67-22.63-30.87,0-29.41,10.52-38.06,31.19-38.06,3.71,0,62-.13,107.11-.13A75.78,75.78,0,0,1,192.54,88.29Z" transform="translate(-3.1 -4.28)"/></g></svg>