<?xml version="1.0" encoding="utf-8"?>
<!-- Generator: Adobe Illustrator 25.2.3, SVG Export Plug-In . SVG Version: 6.00 Build 0)  -->
<svg version="1.1" id="Layer_1" xmlns="http://www.w3.org/2000/svg" xmlns:xlink="http://www.w3.org/1999/xlink" x="0px" y="0px"
	 viewBox="0 0 2834.6 2834.6" style="enable-background:new 0 0 2834.6 2834.6;" xml:space="preserve">
<style type="text/css">
	.st0{fill:#505050;}
</style>
<g>
	<path class="st0" d="M1417.3,1704.7c154.2,0,287.4-126.2,287.4-287.4c0-63.1-21-119.2-56.1-168.2
		c-49.1-70.1-140.2-119.2-231.3-119.2s-182.3,49.1-231.3,119.2c-35,49.1-56.1,105.1-56.1,168.2
		C1129.9,1578.6,1263.1,1704.7,1417.3,1704.7z"/>
	<path class="st0" d="M1830.9,1249.1c21,49.1,35,112.2,35,168.2c0,245.3-203.3,448.6-448.6,448.6s-448.6-203.3-448.6-448.6
		c0-56.1,14-119.2,35-168.2H758.4V1922c0,84.1,70.1,154.2,154.2,154.2H1922c84.1,0,154.2-70.1,154.2-154.2l0-672.9H1830.9z"/>
	<polygon class="st0" points="2048.2,786.4 2013.2,786.4 1767.8,786.4 1767.8,1066.8 2048.2,1066.8 	"/>
	<path class="st0" d="M1417.3,0C634.6,0,0,634.6,0,1417.3s634.6,1417.3,1417.3,1417.3s1417.3-634.6,1417.3-1417.3S2200.1,0,1417.3,0
		z M2237.5,1922c0,175.2-140.2,315.4-315.4,315.4H912.6c-175.2,0-315.4-140.2-315.4-315.4V912.6c0-175.2,140.2-315.4,315.4-315.4
		H1922h0h0c175.2,0,315.4,140.2,315.4,315.4V1922z"/>
</g>
</svg>
