<?xml version="1.0" encoding="utf-8"?>
<!-- Generator: Adobe Illustrator 25.2.3, SVG Export Plug-In . SVG Version: 6.00 Build 0)  -->
<svg version="1.1"
	 id="Layer_1" shape-rendering="geometricPrecision" text-rendering="geometricPrecision" image-rendering="optimizeQuality"
	 xmlns="http://www.w3.org/2000/svg" xmlns:xlink="http://www.w3.org/1999/xlink" x="0px" y="0px" viewBox="0 0 64 64"
	 style="enable-background:new 0 0 64 64;" xml:space="preserve">
<style type="text/css">
	.st0{fill-rule:evenodd;clip-rule:evenodd;fill:#505050;}
</style>
<path class="st0" d="M32,0C14.3,0,0,14.3,0,32c0,13.6,8.4,25.1,20.3,29.8c-0.3-2.5-0.5-6.4,0.1-9.2c0.6-2.5,3.8-15.9,3.8-15.9
	s-1-1.9-1-4.7c0-4.4,2.6-7.8,5.8-7.8c2.7,0,4.1,2,4.1,4.5c0,2.7-1.7,6.9-2.7,10.6c-0.8,3.2,1.6,5.8,4.7,5.8c5.7,0,10.1-6,10.1-14.7
	c0-7.7-5.5-13-13.4-13c-9.1,0-14.4,6.8-14.4,13.9c0,2.8,1.1,5.7,2.4,7.3c0.3,0.3,0.3,0.6,0.2,0.9c-0.2,1-0.8,3.2-0.9,3.6
	c-0.1,0.6-0.5,0.7-1.1,0.4c-4-1.9-6.5-7.7-6.5-12.4c0-10.1,7.3-19.4,21.1-19.4c11.1,0,19.7,7.9,19.7,18.5c0,11-7,19.9-16.6,19.9
	c-3.2,0-6.3-1.7-7.3-3.7c0,0-1.6,6.1-2,7.6c-0.7,2.8-2.7,6.3-4,8.4c3,0.9,6.2,1.4,9.5,1.4c17.7,0,32-14.3,32-32C64,14.3,49.7,0,32,0
	L32,0L32,0z"/>
</svg>
