<?xml version="1.0" encoding="utf-8"?>
<!-- Generator: Adobe Illustrator 25.2.3, SVG Export Plug-In . SVG Version: 6.00 Build 0)  -->
<svg version="1.1" id="Layer_1" xmlns="http://www.w3.org/2000/svg" xmlns:xlink="http://www.w3.org/1999/xlink" x="0px" y="0px"
	 viewBox="0 0 274 276" style="enable-background:new 0 0 274 276;" xml:space="preserve">
<style type="text/css">
	.st0{fill:#505050;}
</style>
<g>
	<path class="st0" d="M137,1C61.3,1,0,62.3,0,138s61.3,137,137,137s137-61.3,137-137S212.7,1,137,1z M210.3,101.3
		c3.1,59.5-42.6,110.2-102,113.3C86,215.8,63.9,210,45,198c19.3,1.3,38.4-4.6,53.6-16.6c-14.8-1.8-27.3-11.9-32.1-26
		c5.7,0.9,11.6,0.5,17.1-1.1C66,151,52.9,135.9,52.2,117.9c4.9,2,10.2,2.9,15.5,2.8c-15.2-11.8-19.5-33-10-49.8
		c19.2,23.7,47.5,38.2,78,39.8c-6-19.6,5-40.3,24.5-46.3c14.4-4.4,30.1,0.3,39.6,12c8.5-1.5,16.6-4.7,23.8-9.4
		c-2.8,9-8.9,16.5-17.1,21c7.5-0.8,14.8-2.8,21.6-6.1C224.8,90.4,218.4,97.3,210.3,101.3z"/>
</g>
</svg>
