<?xml version="1.0" encoding="utf-8"?>
<svg version="1.1" xmlns:xlink="http://www.w3.org/1999/xlink" width="48px" height="72px" xmlns="http://www.w3.org/2000/svg">
  <g transform="matrix(1 0 0 1 -117 -259 )">
    <path d="M 130.9 328.420885965146  L 117.531645613942 295  L 130.9 261.579114034854  L 130.9 278.94  L 151.1 278.94  L 151.1 261.579114034854  L 164.468354386058 295  L 151.1 328.420885965146  L 151.1 311.06  L 130.9 311.06  L 130.9 328.420885965146  Z " fill-rule="nonzero" fill="#ffffff" stroke="none" />
    <path d="M 131.4 331  L 117 295  L 131.4 259  L 131.4 278.44  L 150.6 278.44  L 150.6 259  L 165 295  L 150.6 331  L 150.6 311.56  L 131.4 311.56  L 131.4 331  Z M 118.063291227884 295  L 130.4 325.841771930291  L 130.4 310.56  L 151.6 310.56  L 151.6 325.841771930291  L 163.936708772116 295  L 151.6 264.158228069709  L 151.6 279.44  L 130.4 279.44  L 130.4 264.158228069709  L 118.063291227884 295  Z " fill-rule="nonzero" fill="#e00000" stroke="none" />
  </g>
</svg>